<svg width="15" height="15" viewBox="0 0 15 15" fill="none" xmlns="http://www.w3.org/2000/svg">
<path d="M15 7.5C15 6.01664 14.5601 4.56659 13.736 3.33322C12.9119 2.09985 11.7406 1.13856 10.3701 0.570903C8.99968 0.00324625 7.49168 -0.145279 6.03683 0.14411C4.58197 0.4335 3.2456 1.14781 2.1967 2.1967C1.14781 3.24559 0.433503 4.58196 0.144114 6.03682C-0.145275 7.49168 0.00325008 8.99968 0.570907 10.3701C1.13856 11.7406 2.09986 12.9119 3.33323 13.736C4.5666 14.5601 6.01664 15 7.5 15V13.5C6.31332 13.5 5.15328 13.1481 4.16658 12.4888C3.17989 11.8295 2.41085 10.8925 1.95673 9.7961C1.5026 8.69974 1.38378 7.49334 1.61529 6.32946C1.8468 5.16557 2.41825 4.09647 3.25736 3.25736C4.09648 2.41824 5.16558 1.8468 6.32946 1.61529C7.49335 1.38378 8.69975 1.5026 9.7961 1.95672C10.8925 2.41085 11.8295 3.17988 12.4888 4.16658C13.1481 5.15327 13.5 6.31331 13.5 7.5H15Z" fill="#5FFEB9"/>
<rect x="13.5" y="7.5" width="1.5" height="7.5" fill="#5FFEB9"/>
<rect x="6.75" y="4.04999" width="1.5" height="7.5" fill="#5FFEB9"/>
<rect x="3.75" y="8.55002" width="1.5" height="7.5" transform="rotate(-90 3.75 8.55002)" fill="#5FFEB9"/>
</svg>
