<svg width="15" height="15" viewBox="0 0 15 15" fill="none" xmlns="http://www.w3.org/2000/svg">
<path d="M15 7.5C15 11.6421 11.6421 15 7.5 15C3.35786 15 0 11.6421 0 7.5C0 3.35786 3.35786 0 7.5 0C11.6421 0 15 3.35786 15 7.5ZM1.5 7.5C1.5 10.8137 4.18629 13.5 7.5 13.5C10.8137 13.5 13.5 10.8137 13.5 7.5C13.5 4.18629 10.8137 1.5 7.5 1.5C4.18629 1.5 1.5 4.18629 1.5 7.5Z" fill="#5FFEB9"/>
<rect x="6" y="3" width="2" height="5" fill="#5FFEB9"/>
<rect x="6" y="8.021" width="2" height="5" transform="rotate(-30.6964 6 8.021)" fill="#5FFEB9"/>
</svg>
